<svg xmlns="http://www.w3.org/2000/svg" version="1.1" xmlns:xlink="http://www.w3.org/1999/xlink" xmlns:svgjs="http://svgjs.dev/svgjs" width="128" height="128" viewBox="0 0 128 128"><g transform="matrix(0.8046875,0,0,0.8046875,12.345718051820107,7.490171370967744)"><svg viewBox="0 0 141 155" data-background-color="#8abcd7" preserveAspectRatio="xMidYMid meet" height="140" width="128" xmlns="http://www.w3.org/2000/svg" xmlns:xlink="http://www.w3.org/1999/xlink"><g id="tight-bounds" transform="matrix(1,0,0,1,0.21120150187732634,0.25)"><svg viewBox="0 0 140.57759699624532 154.5" height="154.5" width="140.57759699624532"><g><svg viewBox="0 0 140.57759699624532 154.5" height="154.5" width="140.57759699624532"><g><svg viewBox="0 0 140.57759699624532 154.5" height="154.5" width="140.57759699624532"><g id="textblocktransform"><svg viewBox="0 0 140.57759699624532 154.5" height="154.5" width="140.57759699624532" id="textblock"><g><svg viewBox="0 0 140.57759699624532 154.5" height="154.5" width="140.57759699624532"><g transform="matrix(1,0,0,1,0,0)"><svg width="140.57759699624532" viewBox="0.5 -29.3 36.35 39.95" height="154.5" data-palette-color="url(#4d07bc13-c2d4-411e-9f1d-f9af4dd1942d)"></svg></g></svg></g></svg></g></svg></g><g></g></svg></g><defs></defs><mask id="972e5069-719b-4880-b098-f2a2111afbc6"><g id="SvgjsG1218"><svg viewBox="0 0 140.57759699624532 154.5" height="154.5" width="140.57759699624532"><g><svg viewBox="0 0 140.57759699624532 154.5" height="154.5" width="140.57759699624532"><g><svg viewBox="0 0 140.57759699624532 154.5" height="154.5" width="140.57759699624532"><g id="SvgjsG1217"><svg viewBox="0 0 140.57759699624532 154.5" height="154.5" width="140.57759699624532" id="SvgjsSvg1216"><g><svg viewBox="0 0 140.57759699624532 154.5" height="154.5" width="140.57759699624532"><g transform="matrix(1,0,0,1,0,0)"><svg width="140.57759699624532" viewBox="0.5 -29.3 36.35 39.95" height="154.5" data-palette-color="url(#4d07bc13-c2d4-411e-9f1d-f9af4dd1942d)"><path d="M29.7-24.95L29.7-24.95Q23.45-26.9 17.4-26.9L17.4-26.9Q14.55-26.9 11.95-26.4L11.95-26.4Q9.9-25.85 8.78-24.68 7.65-23.5 7.65-22.9 7.65-22.3 7.85-21.9 8.05-21.5 8.05-21.23 8.05-20.95 7.83-21 7.6-21.05 7.05-21.73 6.5-22.4 6.5-23.38 6.5-24.35 7.2-25.4L7.2-25.4Q8.65-27.55 11.15-28.4 13.65-29.25 17.3-29.25L17.3-29.25Q23.05-29.25 31.45-27.1L31.45-27.1Q32.6-28.25 33.88-28.78 35.15-29.3 35.85-29.3 36.55-29.3 36.85-28.4L36.85-28.4Q36.85-28.25 36.85-28.15L36.85-28.15Q36.85-26.4 35.23-25.38 33.6-24.35 32.3-24.35L32.3-24.35Q31.85-24.35 31.45-24.45L31.45-24.45Q30.25-23.8 29.33-22.98 28.4-22.15 27.9-21.73 27.4-21.3 26.6-20.48 25.8-19.65 25.4-19.23 25-18.8 24.08-17.78 23.15-16.75 22.8-16.4L22.8-16.4Q21.2-14.65 20.2-13.4L20.2-13.4Q24.55-13.75 25.75-13.75 26.95-13.75 27.25-13.75 27.55-13.75 27.85-13.68 28.15-13.6 28.3-13.5L28.3-13.5Q28.65-13.2 27.25-12.7L27.25-12.7Q25.1-12.1 18.6-11.65L18.6-11.65 16.25-9.15Q11.25-4.05 7.25-1.75L7.25-1.75Q6.9-1.4 6.9-1.03 6.9-0.65 7.5-0.25L7.5-0.25Q8.9 0.5 12.53 2.6 16.15 4.7 18.1 5.65 20.05 6.6 22.75 7.35 25.45 8.1 26.85 8.1 28.25 8.1 28.95 8L28.95 8Q31.4 7.65 32.9 6L32.9 6Q33.6 5.2 33.6 4.15 33.6 3.1 32.75 1.75L32.75 1.75Q32.4 1.1 32.8 1.03 33.2 0.95 33.55 1.55L33.55 1.55Q34.55 3.15 34.95 5.55L34.95 5.55Q35 5.85 35 6.2L35 6.2Q35 7.7 33.85 9.05L33.85 9.05Q32.5 10.65 29.28 10.65 26.05 10.65 22.65 9.5 19.25 8.35 16.5 6.55L16.5 6.55Q7.8 0.95 4.7-0.2L4.7-0.2Q3.05 0.65 2.4 0.65L2.4 0.65Q0.5 0.65 0.5-0.95L0.5-0.95Q0.5-1.9 1.55-2.4L1.55-2.4Q2.05-2.45 3.08-2.23 4.1-2 4.6-1.95L4.6-1.95Q7.9-3.1 15.7-11.45L15.7-11.45Q13.3-11.3 12.5-11.3 11.7-11.3 11.38-11.33 11.05-11.35 10.63-11.75 10.2-12.15 10.2-12.75 10.2-13.35 11.2-13.78 12.2-14.2 12.55-14.2 12.9-14.2 13.15-14.2 13.4-14.2 13.8-13.7 14.2-13.2 14.35-13.2L14.35-13.2Q15.1-13.15 15.85-13.15 16.6-13.15 17.3-13.2L17.3-13.2Q17.9-13.85 19.25-15.3L19.25-15.3 21.3-17.5Q26.75-23.35 29.7-24.95Z" opacity="1" transform="matrix(1,0,0,1,0,0)" fill="white" class="wordmark-text-0" id="SvgjsPath1215"></path></svg></g></svg></g></svg></g></svg></g><g></g></svg></g><defs><mask></mask></defs></svg></g></mask><linearGradient x1="0" x2="1" y1="0.548" y2="0.55" id="4d07bc13-c2d4-411e-9f1d-f9af4dd1942d"><stop stop-color="#ff6cab" offset="0"></stop><stop stop-color="#7366ff" offset="1"></stop></linearGradient><rect width="140.57759699624532" height="154.5" fill="url(#4d07bc13-c2d4-411e-9f1d-f9af4dd1942d)" mask="url(#972e5069-719b-4880-b098-f2a2111afbc6)" data-fill-palette-color="primary"></rect></svg><rect width="140.57759699624532" height="154.5" fill="none" stroke="none" visibility="hidden"></rect></g></svg></g></svg>